<?xml version="1.0" encoding="UTF-8"?>
<svg xmlns="http://www.w3.org/2000/svg" xmlns:xlink="http://www.w3.org/1999/xlink" viewBox="0 0 500 500" width="500px" height="500px">
<g id="surface21982411">
<path style=" stroke:none;fill-rule:nonzero;fill:rgb(94.509804%,76.862746%,5.882353%);fill-opacity:1;" d="M 250 500 C 111.929688 500 0 388.070312 0 250 C 0 111.929688 111.929688 0 250 0 C 388.070312 0 500 111.929688 500 250 C 500 388.070312 388.070312 500 250 500 Z M 250 500 "/>
<path style=" stroke:none;fill-rule:nonzero;fill:rgb(0%,0%,0%);fill-opacity:1;" d="M 176.46875 472.84375 C 183.71875 469.722656 188.800781 462.511719 188.800781 454.117188 L 188.800781 399.035156 C 188.800781 397.027344 188.964844 394.9375 189.21875 392.8125 C 189.074219 392.855469 188.941406 392.886719 188.800781 392.917969 C 188.800781 392.917969 158.199219 392.917969 152.078125 392.917969 C 136.78125 392.917969 123.519531 386.796875 117.398438 374.554688 C 110.261719 361.296875 107.199219 338.855469 88.839844 326.617188 C 85.78125 324.578125 87.820312 321.515625 93.941406 321.515625 C 100.058594 322.535156 113.320312 330.695312 121.480469 341.917969 C 130.660156 353.136719 139.839844 362.316406 156.160156 362.316406 C 181.527344 362.316406 195.125 361.042969 203.304688 356.65625 C 212.832031 342.488281 226.019531 331.714844 239.800781 331.714844 L 239.800781 331.460938 C 181.988281 329.605469 145.050781 310.386719 127.855469 280.714844 C 90.472656 281.144531 57.921875 284.847656 39.347656 287.929688 C 38.757812 284.59375 38.246094 281.238281 37.808594 277.859375 C 56.140625 274.839844 87.207031 271.261719 122.929688 270.578125 C 121.785156 267.761719 120.796875 264.875 119.960938 261.917969 C 84.148438 260.101562 53.242188 261.519531 36.453125 262.90625 C 36.25 259.519531 35.972656 256.144531 35.933594 252.71875 C 52.753906 251.339844 82.820312 249.964844 117.714844 251.585938 C 116.910156 246.484375 116.390625 241.273438 116.390625 235.847656 C 116.390625 218.507812 122.511719 200.148438 133.730469 184.847656 C 128.628906 167.507812 121.488281 130.785156 135.769531 117.527344 C 163.308594 117.527344 182.691406 130.785156 191.871094 138.945312 C 209.199219 131.796875 228.578125 127.714844 250 127.714844 C 271.421875 127.714844 290.800781 131.796875 307.121094 138.9375 C 316.300781 130.777344 335.679688 117.515625 363.21875 117.515625 C 378.519531 131.796875 370.359375 168.515625 365.261719 184.835938 C 376.480469 200.136719 382.601562 217.476562 381.578125 235.835938 C 381.578125 240.773438 381.121094 245.535156 380.457031 250.207031 C 416.148438 248.453125 447.035156 249.863281 464.140625 251.25 C 464.117188 254.6875 463.800781 258.042969 463.617188 261.4375 C 446.574219 260.03125 414.914062 258.582031 378.355469 260.53125 C 377.449219 263.957031 376.347656 267.292969 375.042969 270.527344 C 411.210938 270.996094 443.023438 274.496094 462.230469 277.554688 C 461.792969 280.941406 461.28125 284.296875 460.691406 287.621094 C 441.1875 284.5 407.945312 280.847656 370.125 280.664062 C 353.140625 310.019531 316.882812 329.167969 260.199219 331.398438 L 260.199219 331.714844 C 286.71875 331.714844 311.199219 371.496094 311.199219 399.035156 L 311.199219 454.117188 C 311.199219 462.511719 316.28125 469.722656 323.53125 472.84375 C 416.972656 441.917969 484.601562 353.789062 484.601562 250.117188 C 484.601562 120.761719 379.367188 15.515625 250 15.515625 C 120.632812 15.515625 15.398438 120.761719 15.398438 250.117188 C 15.398438 353.789062 83.027344 441.917969 176.46875 472.84375 Z M 176.46875 472.84375 "/>
</g>
</svg>
